<mxfile host="app.diagrams.net" modified="2023-10-27T03:25:42.958Z" agent="Mozilla/5.0 (Windows NT 10.0; Win64; x64) AppleWebKit/537.36 (KHTML, like Gecko) Chrome/118.0.0.0 Safari/537.36" etag="AMFZdyGSDUdW_WA4pROw" version="22.0.8" type="github">
  <diagram name="Page-1" id="rE6K1-VurLOCmhuHM0Z1">
    <mxGraphModel dx="-1859" dy="1083" grid="1" gridSize="10" guides="1" tooltips="1" connect="1" arrows="1" fold="1" page="1" pageScale="1" pageWidth="850" pageHeight="1100" math="0" shadow="0">
      <root>
        <mxCell id="0" />
        <mxCell id="1" parent="0" />
        <mxCell id="0X8HLezT1-ekzfBw2J43-1" value="" style="rounded=0;whiteSpace=wrap;html=1;fontSize=36;glass=0;shadow=0;sketch=0;fillColor=#f5f5f5;fontColor=#333333;strokeColor=#666666;" vertex="1" parent="1">
          <mxGeometry x="4250" width="850" height="1100" as="geometry" />
        </mxCell>
        <mxCell id="0X8HLezT1-ekzfBw2J43-2" style="edgeStyle=orthogonalEdgeStyle;rounded=0;orthogonalLoop=1;jettySize=auto;html=1;" edge="1" parent="1" source="0X8HLezT1-ekzfBw2J43-6" target="0X8HLezT1-ekzfBw2J43-9">
          <mxGeometry relative="1" as="geometry" />
        </mxCell>
        <mxCell id="0X8HLezT1-ekzfBw2J43-3" style="edgeStyle=orthogonalEdgeStyle;rounded=0;orthogonalLoop=1;jettySize=auto;html=1;entryX=0;entryY=0.5;entryDx=0;entryDy=0;fontSize=24;" edge="1" parent="1" source="0X8HLezT1-ekzfBw2J43-6" target="0X8HLezT1-ekzfBw2J43-8">
          <mxGeometry relative="1" as="geometry" />
        </mxCell>
        <mxCell id="0X8HLezT1-ekzfBw2J43-4" style="edgeStyle=orthogonalEdgeStyle;rounded=0;orthogonalLoop=1;jettySize=auto;html=1;fontSize=24;" edge="1" parent="1" source="0X8HLezT1-ekzfBw2J43-6" target="0X8HLezT1-ekzfBw2J43-7">
          <mxGeometry relative="1" as="geometry" />
        </mxCell>
        <mxCell id="0X8HLezT1-ekzfBw2J43-5" style="edgeStyle=orthogonalEdgeStyle;rounded=0;orthogonalLoop=1;jettySize=auto;html=1;entryX=0;entryY=0.5;entryDx=0;entryDy=0;fontSize=24;" edge="1" parent="1" source="0X8HLezT1-ekzfBw2J43-6" target="0X8HLezT1-ekzfBw2J43-39">
          <mxGeometry relative="1" as="geometry" />
        </mxCell>
        <mxCell id="0X8HLezT1-ekzfBw2J43-6" value="&lt;b&gt;Group&lt;/b&gt;" style="rounded=1;arcSize=10;whiteSpace=wrap;html=1;align=center;fillColor=#FFCC99;strokeColor=#FFCC99;" vertex="1" parent="1">
          <mxGeometry x="4813" y="405.5499999999999" width="100" height="40" as="geometry" />
        </mxCell>
        <mxCell id="0X8HLezT1-ekzfBw2J43-7" value="Course" style="ellipse;whiteSpace=wrap;html=1;align=center;fillColor=#FFE6CC;strokeColor=#FFE6CC;" vertex="1" parent="1">
          <mxGeometry x="4953" y="405.83999999999986" width="100" height="40" as="geometry" />
        </mxCell>
        <mxCell id="0X8HLezT1-ekzfBw2J43-8" value="Shift" style="ellipse;whiteSpace=wrap;html=1;align=center;fillColor=#FFE6CC;strokeColor=#FFE6CC;" vertex="1" parent="1">
          <mxGeometry x="4953" y="354" width="100" height="40" as="geometry" />
        </mxCell>
        <mxCell id="0X8HLezT1-ekzfBw2J43-9" value="GroupID" style="ellipse;whiteSpace=wrap;html=1;align=center;fontStyle=4;fillColor=#FFE6CC;strokeColor=#FFE6CC;" vertex="1" parent="1">
          <mxGeometry x="4813" y="339.55" width="100" height="40" as="geometry" />
        </mxCell>
        <mxCell id="0X8HLezT1-ekzfBw2J43-10" value="&lt;b&gt;Belong&lt;/b&gt;" style="shape=rhombus;perimeter=rhombusPerimeter;whiteSpace=wrap;html=1;align=center;fillColor=#CCCCCC;strokeColor=#CCCCCC;" vertex="1" parent="1">
          <mxGeometry x="4613" y="395.05" width="120" height="60" as="geometry" />
        </mxCell>
        <mxCell id="0X8HLezT1-ekzfBw2J43-11" style="edgeStyle=orthogonalEdgeStyle;rounded=0;orthogonalLoop=1;jettySize=auto;html=1;fontSize=24;" edge="1" parent="1" source="0X8HLezT1-ekzfBw2J43-15" target="0X8HLezT1-ekzfBw2J43-29">
          <mxGeometry relative="1" as="geometry">
            <mxPoint x="4430.00000625" y="428.49" as="sourcePoint" />
          </mxGeometry>
        </mxCell>
        <mxCell id="0X8HLezT1-ekzfBw2J43-12" style="edgeStyle=orthogonalEdgeStyle;rounded=0;orthogonalLoop=1;jettySize=auto;html=1;fontSize=24;exitX=0;exitY=0.5;exitDx=0;exitDy=0;entryX=0.5;entryY=1;entryDx=0;entryDy=0;" edge="1" parent="1" source="0X8HLezT1-ekzfBw2J43-15" target="0X8HLezT1-ekzfBw2J43-16">
          <mxGeometry relative="1" as="geometry">
            <mxPoint x="4401.00000625" y="428.49" as="sourcePoint" />
          </mxGeometry>
        </mxCell>
        <mxCell id="0X8HLezT1-ekzfBw2J43-13" style="edgeStyle=orthogonalEdgeStyle;rounded=0;orthogonalLoop=1;jettySize=auto;html=1;fontSize=24;exitX=0;exitY=0.5;exitDx=0;exitDy=0;" edge="1" parent="1" source="0X8HLezT1-ekzfBw2J43-15" target="0X8HLezT1-ekzfBw2J43-17">
          <mxGeometry relative="1" as="geometry">
            <mxPoint x="4401.00000625" y="428.49" as="sourcePoint" />
          </mxGeometry>
        </mxCell>
        <mxCell id="0X8HLezT1-ekzfBw2J43-14" style="edgeStyle=orthogonalEdgeStyle;rounded=0;orthogonalLoop=1;jettySize=auto;html=1;fontSize=24;" edge="1" parent="1" source="0X8HLezT1-ekzfBw2J43-15" target="0X8HLezT1-ekzfBw2J43-18">
          <mxGeometry relative="1" as="geometry">
            <mxPoint x="4430.00000625" y="428.49" as="sourcePoint" />
          </mxGeometry>
        </mxCell>
        <mxCell id="0X8HLezT1-ekzfBw2J43-15" value="&lt;b&gt;Student&lt;/b&gt;" style="rounded=1;arcSize=10;whiteSpace=wrap;html=1;align=center;strokeColor=#CC99FF;fillColor=#CC99FF;" vertex="1" parent="1">
          <mxGeometry x="4430" y="405.5" width="100" height="40" as="geometry" />
        </mxCell>
        <mxCell id="0X8HLezT1-ekzfBw2J43-16" value="MaternalSurname" style="ellipse;whiteSpace=wrap;html=1;align=center;fillColor=#E5CCFF;strokeColor=#E5CCFF;" vertex="1" parent="1">
          <mxGeometry x="4293" y="365.5" width="100" height="40" as="geometry" />
        </mxCell>
        <mxCell id="0X8HLezT1-ekzfBw2J43-17" value="Name" style="ellipse;whiteSpace=wrap;html=1;align=center;fillColor=#E5CCFF;strokeColor=#E5CCFF;" vertex="1" parent="1">
          <mxGeometry x="4293" y="451.44000000000017" width="100" height="40" as="geometry" />
        </mxCell>
        <mxCell id="0X8HLezT1-ekzfBw2J43-18" value="StudentID" style="ellipse;whiteSpace=wrap;html=1;align=center;fontStyle=4;fillColor=#E5CCFF;strokeColor=#E5CCFF;" vertex="1" parent="1">
          <mxGeometry x="4430" y="478.0000000000001" width="100" height="40" as="geometry" />
        </mxCell>
        <mxCell id="0X8HLezT1-ekzfBw2J43-19" value="" style="endArrow=none;html=1;rounded=0;exitX=0;exitY=0.5;exitDx=0;exitDy=0;entryX=1;entryY=0.5;entryDx=0;entryDy=0;" edge="1" parent="1" source="0X8HLezT1-ekzfBw2J43-6" target="0X8HLezT1-ekzfBw2J43-10">
          <mxGeometry relative="1" as="geometry">
            <mxPoint x="4733" y="426.05" as="sourcePoint" />
            <mxPoint x="4723" y="495.05" as="targetPoint" />
          </mxGeometry>
        </mxCell>
        <mxCell id="0X8HLezT1-ekzfBw2J43-20" value="1" style="resizable=0;html=1;align=right;verticalAlign=bottom;" connectable="0" vertex="1" parent="0X8HLezT1-ekzfBw2J43-19">
          <mxGeometry x="1" relative="1" as="geometry">
            <mxPoint x="53" y="-4" as="offset" />
          </mxGeometry>
        </mxCell>
        <mxCell id="0X8HLezT1-ekzfBw2J43-21" value="" style="endArrow=none;html=1;rounded=0;exitX=0;exitY=0.5;exitDx=0;exitDy=0;entryX=1;entryY=0.5;entryDx=0;entryDy=0;" edge="1" parent="1" source="0X8HLezT1-ekzfBw2J43-10" target="0X8HLezT1-ekzfBw2J43-15">
          <mxGeometry relative="1" as="geometry">
            <mxPoint x="4453" y="655.05" as="sourcePoint" />
            <mxPoint x="4550" y="440" as="targetPoint" />
          </mxGeometry>
        </mxCell>
        <mxCell id="0X8HLezT1-ekzfBw2J43-22" value="N" style="resizable=0;html=1;align=right;verticalAlign=bottom;" connectable="0" vertex="1" parent="0X8HLezT1-ekzfBw2J43-21">
          <mxGeometry x="1" relative="1" as="geometry">
            <mxPoint x="49" y="-4" as="offset" />
          </mxGeometry>
        </mxCell>
        <mxCell id="0X8HLezT1-ekzfBw2J43-23" value="&lt;b&gt;Teach&lt;/b&gt;" style="shape=rhombus;perimeter=rhombusPerimeter;whiteSpace=wrap;html=1;align=center;fillColor=#CCCCCC;strokeColor=#CCCCCC;" vertex="1" parent="1">
          <mxGeometry x="4420" y="788.9600000000002" width="120" height="60" as="geometry" />
        </mxCell>
        <mxCell id="0X8HLezT1-ekzfBw2J43-24" value="" style="endArrow=none;html=1;rounded=0;exitX=0.5;exitY=0;exitDx=0;exitDy=0;" edge="1" parent="1" source="0X8HLezT1-ekzfBw2J43-23" target="0X8HLezT1-ekzfBw2J43-34">
          <mxGeometry relative="1" as="geometry">
            <mxPoint x="4421.835746793546" y="818.5421266032274" as="sourcePoint" />
            <mxPoint x="4338" y="817.95" as="targetPoint" />
          </mxGeometry>
        </mxCell>
        <mxCell id="0X8HLezT1-ekzfBw2J43-25" value="1" style="resizable=0;html=1;align=right;verticalAlign=bottom;" connectable="0" vertex="1" parent="0X8HLezT1-ekzfBw2J43-24">
          <mxGeometry x="1" relative="1" as="geometry">
            <mxPoint x="17" y="51" as="offset" />
          </mxGeometry>
        </mxCell>
        <mxCell id="0X8HLezT1-ekzfBw2J43-26" value="" style="endArrow=none;html=1;rounded=0;exitX=1;exitY=0.5;exitDx=0;exitDy=0;" edge="1" parent="1" source="0X8HLezT1-ekzfBw2J43-23" target="0X8HLezT1-ekzfBw2J43-43">
          <mxGeometry relative="1" as="geometry">
            <mxPoint x="4760" y="598.96" as="sourcePoint" />
            <mxPoint x="4620" y="818.9600000000003" as="targetPoint" />
          </mxGeometry>
        </mxCell>
        <mxCell id="0X8HLezT1-ekzfBw2J43-27" value="N" style="resizable=0;html=1;align=right;verticalAlign=bottom;" connectable="0" vertex="1" parent="0X8HLezT1-ekzfBw2J43-26">
          <mxGeometry x="1" relative="1" as="geometry">
            <mxPoint x="-26" y="-6" as="offset" />
          </mxGeometry>
        </mxCell>
        <mxCell id="0X8HLezT1-ekzfBw2J43-28" value="&lt;b&gt;&lt;font style=&quot;font-size: 36px;&quot;&gt;School Control System&lt;/font&gt;&lt;/b&gt;" style="text;html=1;strokeColor=#B3B3B3;fillColor=#6666FF;align=center;verticalAlign=middle;rounded=0;shadow=1;fontColor=#FFFFFF;gradientColor=none;whiteSpace=wrap;" vertex="1" parent="1">
          <mxGeometry x="4372" y="143.55" width="657" height="78.51" as="geometry" />
        </mxCell>
        <mxCell id="0X8HLezT1-ekzfBw2J43-29" value="PaternalSurname" style="ellipse;whiteSpace=wrap;html=1;align=center;fillColor=#E5CCFF;strokeColor=#E5CCFF;" vertex="1" parent="1">
          <mxGeometry x="4430" y="334.49" width="100" height="40" as="geometry" />
        </mxCell>
        <mxCell id="0X8HLezT1-ekzfBw2J43-30" style="edgeStyle=orthogonalEdgeStyle;rounded=0;orthogonalLoop=1;jettySize=auto;html=1;fontSize=24;" edge="1" parent="1" source="0X8HLezT1-ekzfBw2J43-34" target="0X8HLezT1-ekzfBw2J43-38">
          <mxGeometry relative="1" as="geometry">
            <mxPoint x="4237.00000625" y="820.95" as="sourcePoint" />
          </mxGeometry>
        </mxCell>
        <mxCell id="0X8HLezT1-ekzfBw2J43-31" style="edgeStyle=orthogonalEdgeStyle;rounded=0;orthogonalLoop=1;jettySize=auto;html=1;entryX=1;entryY=0.5;entryDx=0;entryDy=0;fontSize=24;" edge="1" parent="1" source="0X8HLezT1-ekzfBw2J43-34" target="0X8HLezT1-ekzfBw2J43-35">
          <mxGeometry relative="1" as="geometry" />
        </mxCell>
        <mxCell id="0X8HLezT1-ekzfBw2J43-32" style="edgeStyle=orthogonalEdgeStyle;rounded=0;orthogonalLoop=1;jettySize=auto;html=1;entryX=1;entryY=0.5;entryDx=0;entryDy=0;fontSize=24;" edge="1" parent="1" source="0X8HLezT1-ekzfBw2J43-34" target="0X8HLezT1-ekzfBw2J43-37">
          <mxGeometry relative="1" as="geometry" />
        </mxCell>
        <mxCell id="0X8HLezT1-ekzfBw2J43-33" style="edgeStyle=orthogonalEdgeStyle;rounded=0;orthogonalLoop=1;jettySize=auto;html=1;entryX=1;entryY=0.5;entryDx=0;entryDy=0;fontSize=24;" edge="1" parent="1" source="0X8HLezT1-ekzfBw2J43-34" target="0X8HLezT1-ekzfBw2J43-36">
          <mxGeometry relative="1" as="geometry" />
        </mxCell>
        <mxCell id="0X8HLezT1-ekzfBw2J43-34" value="&lt;b&gt;Teacher&lt;/b&gt;" style="rounded=1;arcSize=10;whiteSpace=wrap;html=1;align=center;fillColor=#99FFFF;strokeColor=#99FFFF;" vertex="1" parent="1">
          <mxGeometry x="4430" y="666.95" width="100" height="40" as="geometry" />
        </mxCell>
        <mxCell id="0X8HLezT1-ekzfBw2J43-35" value="MaternalSurname" style="ellipse;whiteSpace=wrap;html=1;align=center;fillColor=#CCFFFF;strokeColor=#CCFFFF;" vertex="1" parent="1">
          <mxGeometry x="4290" y="617.48" width="100" height="40" as="geometry" />
        </mxCell>
        <mxCell id="0X8HLezT1-ekzfBw2J43-36" value="Name" style="ellipse;whiteSpace=wrap;html=1;align=center;fillColor=#CCFFFF;strokeColor=#CCFFFF;" vertex="1" parent="1">
          <mxGeometry x="4290" y="716.4200000000002" width="100" height="40" as="geometry" />
        </mxCell>
        <mxCell id="0X8HLezT1-ekzfBw2J43-37" value="TeacherID" style="ellipse;whiteSpace=wrap;html=1;align=center;fontStyle=4;fillColor=#CCFFFF;strokeColor=#CCFFFF;" vertex="1" parent="1">
          <mxGeometry x="4290" y="667.5400000000002" width="100" height="40" as="geometry" />
        </mxCell>
        <mxCell id="0X8HLezT1-ekzfBw2J43-38" value="PaternalSurname" style="ellipse;whiteSpace=wrap;html=1;align=center;fillColor=#CCFFFF;strokeColor=#CCFFFF;" vertex="1" parent="1">
          <mxGeometry x="4430" y="590" width="100" height="40" as="geometry" />
        </mxCell>
        <mxCell id="0X8HLezT1-ekzfBw2J43-39" value="NumberStudents" style="ellipse;whiteSpace=wrap;html=1;align=center;fillColor=#FFE6CC;strokeColor=#FFE6CC;" vertex="1" parent="1">
          <mxGeometry x="4954" y="458.39999999999986" width="100" height="40" as="geometry" />
        </mxCell>
        <mxCell id="0X8HLezT1-ekzfBw2J43-40" style="edgeStyle=orthogonalEdgeStyle;rounded=0;orthogonalLoop=1;jettySize=auto;html=1;" edge="1" parent="1" source="0X8HLezT1-ekzfBw2J43-43" target="0X8HLezT1-ekzfBw2J43-45">
          <mxGeometry relative="1" as="geometry" />
        </mxCell>
        <mxCell id="0X8HLezT1-ekzfBw2J43-41" style="edgeStyle=orthogonalEdgeStyle;rounded=0;orthogonalLoop=1;jettySize=auto;html=1;entryX=0.5;entryY=0;entryDx=0;entryDy=0;" edge="1" parent="1" source="0X8HLezT1-ekzfBw2J43-43" target="0X8HLezT1-ekzfBw2J43-44">
          <mxGeometry relative="1" as="geometry" />
        </mxCell>
        <mxCell id="0X8HLezT1-ekzfBw2J43-42" style="edgeStyle=orthogonalEdgeStyle;rounded=0;orthogonalLoop=1;jettySize=auto;html=1;entryX=0.5;entryY=0;entryDx=0;entryDy=0;fontSize=24;" edge="1" parent="1" source="0X8HLezT1-ekzfBw2J43-43" target="0X8HLezT1-ekzfBw2J43-46">
          <mxGeometry relative="1" as="geometry" />
        </mxCell>
        <mxCell id="0X8HLezT1-ekzfBw2J43-43" value="&lt;b&gt;Subject&lt;/b&gt;" style="ellipse;whiteSpace=wrap;html=1;align=center;fillColor=#FF9999;strokeColor=#FF9999;" vertex="1" parent="1">
          <mxGeometry x="4620" y="796.4599999999999" width="100" height="40" as="geometry" />
        </mxCell>
        <mxCell id="0X8HLezT1-ekzfBw2J43-44" value="Description" style="ellipse;whiteSpace=wrap;html=1;align=center;fillColor=#FFCCCC;strokeColor=#FFCCCC;" vertex="1" parent="1">
          <mxGeometry x="4680" y="875.95" width="100" height="40" as="geometry" />
        </mxCell>
        <mxCell id="0X8HLezT1-ekzfBw2J43-45" value="SubjectID" style="ellipse;whiteSpace=wrap;html=1;align=center;fontStyle=4;fillColor=#FFCCCC;strokeColor=#FFCCCC;" vertex="1" parent="1">
          <mxGeometry x="4620" y="731.4100000000001" width="100" height="40" as="geometry" />
        </mxCell>
        <mxCell id="0X8HLezT1-ekzfBw2J43-46" value="Rating" style="ellipse;whiteSpace=wrap;html=1;align=center;fillColor=#FFCCCC;strokeColor=#FFCCCC;" vertex="1" parent="1">
          <mxGeometry x="4561" y="875.4599999999998" width="100" height="40" as="geometry" />
        </mxCell>
        <mxCell id="0X8HLezT1-ekzfBw2J43-47" value="&lt;b&gt;Contain&lt;/b&gt;" style="shape=rhombus;perimeter=rhombusPerimeter;whiteSpace=wrap;html=1;align=center;fillColor=#CCCCCC;strokeColor=#CCCCCC;" vertex="1" parent="1">
          <mxGeometry x="4803" y="528.0600000000001" width="120" height="60" as="geometry" />
        </mxCell>
        <mxCell id="0X8HLezT1-ekzfBw2J43-48" value="&lt;b&gt;Have&lt;/b&gt;" style="shape=rhombus;perimeter=rhombusPerimeter;whiteSpace=wrap;html=1;align=center;fillColor=#CCCCCC;strokeColor=#CCCCCC;" vertex="1" parent="1">
          <mxGeometry x="4803" y="788.96" width="120" height="60" as="geometry" />
        </mxCell>
        <mxCell id="0X8HLezT1-ekzfBw2J43-49" style="edgeStyle=orthogonalEdgeStyle;rounded=0;orthogonalLoop=1;jettySize=auto;html=1;fontSize=24;" edge="1" parent="1" source="0X8HLezT1-ekzfBw2J43-50" target="0X8HLezT1-ekzfBw2J43-59">
          <mxGeometry relative="1" as="geometry" />
        </mxCell>
        <mxCell id="0X8HLezT1-ekzfBw2J43-50" value="&lt;b&gt;SubjectGroup&lt;/b&gt;" style="rounded=1;arcSize=10;whiteSpace=wrap;html=1;align=center;fillColor=#99CCFF;strokeColor=#99CCFF;" vertex="1" parent="1">
          <mxGeometry x="4813" y="667.5399999999998" width="100" height="40" as="geometry" />
        </mxCell>
        <mxCell id="0X8HLezT1-ekzfBw2J43-51" value="" style="endArrow=none;html=1;rounded=0;exitX=1;exitY=0.5;exitDx=0;exitDy=0;" edge="1" parent="1" source="0X8HLezT1-ekzfBw2J43-43" target="0X8HLezT1-ekzfBw2J43-48">
          <mxGeometry relative="1" as="geometry">
            <mxPoint x="4823" y="435.5499999999997" as="sourcePoint" />
            <mxPoint x="4743" y="435.0500000000002" as="targetPoint" />
          </mxGeometry>
        </mxCell>
        <mxCell id="0X8HLezT1-ekzfBw2J43-52" value="N" style="resizable=0;html=1;align=right;verticalAlign=bottom;" connectable="0" vertex="1" parent="0X8HLezT1-ekzfBw2J43-51">
          <mxGeometry x="1" relative="1" as="geometry">
            <mxPoint x="-42" y="-7" as="offset" />
          </mxGeometry>
        </mxCell>
        <mxCell id="0X8HLezT1-ekzfBw2J43-53" value="" style="endArrow=none;html=1;rounded=0;exitX=0.5;exitY=1;exitDx=0;exitDy=0;entryX=0.5;entryY=0;entryDx=0;entryDy=0;" edge="1" parent="1" source="0X8HLezT1-ekzfBw2J43-50" target="0X8HLezT1-ekzfBw2J43-48">
          <mxGeometry relative="1" as="geometry">
            <mxPoint x="4730" y="826.46" as="sourcePoint" />
            <mxPoint x="4815.027027027027" y="827.9464864864867" as="targetPoint" />
          </mxGeometry>
        </mxCell>
        <mxCell id="0X8HLezT1-ekzfBw2J43-54" value="1" style="resizable=0;html=1;align=right;verticalAlign=bottom;" connectable="0" vertex="1" parent="0X8HLezT1-ekzfBw2J43-53">
          <mxGeometry x="1" relative="1" as="geometry">
            <mxPoint x="11" y="-27" as="offset" />
          </mxGeometry>
        </mxCell>
        <mxCell id="0X8HLezT1-ekzfBw2J43-55" value="" style="endArrow=none;html=1;rounded=0;exitX=0.5;exitY=1;exitDx=0;exitDy=0;entryX=0.5;entryY=0;entryDx=0;entryDy=0;" edge="1" parent="1" source="0X8HLezT1-ekzfBw2J43-6" target="0X8HLezT1-ekzfBw2J43-47">
          <mxGeometry relative="1" as="geometry">
            <mxPoint x="4623" y="435.0500000000002" as="sourcePoint" />
            <mxPoint x="4540" y="435.5" as="targetPoint" />
          </mxGeometry>
        </mxCell>
        <mxCell id="0X8HLezT1-ekzfBw2J43-56" value="N" style="resizable=0;html=1;align=right;verticalAlign=bottom;" connectable="0" vertex="1" parent="0X8HLezT1-ekzfBw2J43-55">
          <mxGeometry x="1" relative="1" as="geometry">
            <mxPoint x="17" y="-30" as="offset" />
          </mxGeometry>
        </mxCell>
        <mxCell id="0X8HLezT1-ekzfBw2J43-57" value="" style="endArrow=none;html=1;rounded=0;exitX=0.5;exitY=1;exitDx=0;exitDy=0;entryX=0.5;entryY=0;entryDx=0;entryDy=0;" edge="1" parent="1" source="0X8HLezT1-ekzfBw2J43-47" target="0X8HLezT1-ekzfBw2J43-50">
          <mxGeometry relative="1" as="geometry">
            <mxPoint x="4823" y="435.5499999999997" as="sourcePoint" />
            <mxPoint x="4743" y="435.0500000000002" as="targetPoint" />
          </mxGeometry>
        </mxCell>
        <mxCell id="0X8HLezT1-ekzfBw2J43-58" value="1" style="resizable=0;html=1;align=right;verticalAlign=bottom;" connectable="0" vertex="1" parent="0X8HLezT1-ekzfBw2J43-57">
          <mxGeometry x="1" relative="1" as="geometry">
            <mxPoint x="16" y="-27" as="offset" />
          </mxGeometry>
        </mxCell>
        <mxCell id="0X8HLezT1-ekzfBw2J43-59" value="SubjectGroupID" style="ellipse;whiteSpace=wrap;html=1;align=center;fontStyle=4;fillColor=#CCE5FF;strokeColor=#CCE5FF;" vertex="1" parent="1">
          <mxGeometry x="4950" y="667.5400000000001" width="100" height="40" as="geometry" />
        </mxCell>
        <mxCell id="0X8HLezT1-ekzfBw2J43-60" value="Created by: Emmanuel Murillo Sanchez" style="text;html=1;strokeColor=none;fillColor=none;align=center;verticalAlign=middle;whiteSpace=wrap;rounded=0;shadow=1;glass=0;labelBackgroundColor=none;sketch=0;fontSize=14;fontColor=#999999;" vertex="1" parent="1">
          <mxGeometry x="4784" y="955" width="258" height="30" as="geometry" />
        </mxCell>
      </root>
    </mxGraphModel>
  </diagram>
</mxfile>
